<?xml version="1.0" standalone="no"?>
<!DOCTYPE svg PUBLIC "-//W3C//DTD SVG 20010904//EN"
 "http://www.w3.org/TR/2001/REC-SVG-20010904/DTD/svg10.dtd">
<svg version="1.0" xmlns="http://www.w3.org/2000/svg"
 width="700.000000pt" height="700.000000pt" viewBox="0 0 700.000000 700.000000"
 preserveAspectRatio="xMidYMid meet">
<metadata>
Created by potrace 1.14, written by Peter Selinger 2001-2017
</metadata>
<g transform="translate(0.000000,700.000000) scale(0.100000,-0.100000)"
fill="#000000" stroke="none">
<path d="M2514 6404 c-189 -38 -341 -159 -422 -337 -43 -93 -50 -162 -50 -495
0 -173 -2 -315 -4 -317 -2 -2 -224 -5 -493 -7 -489 -3 -490 -3 -560 -28 -76
-26 -157 -74 -219 -130 -36 -32 -136 -172 -136 -191 0 -4 -5 -20 -12 -36 -14
-34 -16 -43 -27 -118 -9 -61 -8 -516 2 -531 2 -5 8 -36 11 -69 21 -190 131
-493 241 -665 l29 -45 2 -1170 c0 -643 4 -1184 8 -1202 3 -18 10 -43 16 -57 5
-15 7 -26 5 -26 -8 0 45 -101 78 -149 81 -118 230 -213 377 -239 19 -3 991 -6
2160 -6 l2125 0 78 27 c210 73 349 235 393 457 4 19 8 559 9 1200 l2 1165 49
85 c130 222 204 454 231 715 9 88 10 465 1 525 -24 165 -148 340 -295 418
-130 69 -161 72 -685 72 l-468 0 0 23 c-1 12 -2 164 -4 337 -2 173 -7 330 -11
349 -23 110 -107 248 -199 322 -66 54 -161 104 -215 114 -19 3 -39 9 -45 13
-6 4 -439 7 -961 8 -719 0 -965 -2 -1011 -12z m1851 -576 c8 -5 13 -528 6
-571 0 -4 -394 -6 -873 -5 l-873 3 0 285 c0 217 2 286 12 290 18 7 1717 5
1728 -2z m1468 -1352 c-2 -104 -5 -196 -7 -205 -3 -9 -8 -38 -12 -66 -10 -81
-51 -210 -98 -309 -141 -300 -403 -529 -721 -630 -152 -49 -223 -55 -579 -53
l-329 2 -12 53 c-24 103 -108 195 -203 222 -22 6 -173 10 -368 10 -368 0 -397
-4 -475 -64 -50 -38 -96 -115 -107 -178 l-8 -43 -334 -2 c-363 -2 -432 5 -579
53 -427 142 -740 502 -816 939 -13 75 -22 322 -16 435 l1 26 2332 -1 2333 0
-2 -189z"/>
</g>
</svg>
